<svg width="400" height="120" viewBox="0 0 400 120" xmlns="http://www.w3.org/2000/svg">
  <defs>
    <linearGradient id="memuGradient2" x1="0%" y1="0%" x2="100%" y2="100%">
      <stop offset="0%" style="stop-color:#667eea;stop-opacity:1" />
      <stop offset="100%" style="stop-color:#764ba2;stop-opacity:1" />
    </linearGradient>
  </defs>

  <!-- Stylized M icon (house-like with rounded connections) -->
  <path d="M 20 75 L 20 45 Q 20 35, 28 30 L 42 20 Q 45 17, 48 20 L 62 30 Q 70 35, 70 45 L 70 75 Q 70 78, 67 78 L 57 78 Q 54 78, 54 75 L 54 48 Q 54 45, 51 45 L 45 45 Q 42 45, 42 45 L 39 45 Q 36 45, 36 48 L 36 75 Q 36 78, 33 78 L 23 78 Q 20 78, 20 75 Z"
        fill="url(#memuGradient2)" stroke="none"/>

  <!-- Wordmark -->
  <text x="95" y="75" font-family="-apple-system, BlinkMacSystemFont, 'SF Pro Display', 'Segoe UI', sans-serif"
        font-size="48" font-weight="600" fill="url(#memuGradient2)">memu</text>
</svg>
